<?xml version="1.0" encoding="UTF-8"?>
<svg id="Layer_2" data-name="Layer 2" xmlns="http://www.w3.org/2000/svg" viewBox="0 0 142.09 71.32">
  <defs>
    <style>
      .cls-1 {
        fill: #ff671d;
      }

      .cls-1, .cls-2, .cls-3 {
        fill-rule: evenodd;
      }

      .cls-2, .cls-4 {
        fill: #a2a9ad;
      }
    </style>
  </defs>
  <g id="Layer_1-2" data-name="Layer 1">
    <g>
      <path class="cls-3" d="m19.08,49.5c2.1,0,3.85-.76,4.99-2.16l-1.8-1.66c-.81.95-1.83,1.43-3.04,1.43-2.26,0-3.87-1.59-3.87-3.87s1.6-3.87,3.87-3.87c1.21,0,2.23.48,3.04,1.41l1.8-1.66c-1.14-1.38-2.88-2.14-4.97-2.14-3.76,0-6.56,2.61-6.56,6.25,0,3.66,2.8,6.27,6.54,6.27m11.42,0c3.43,0,5.47-1.97,5.47-5.52v-6.77h-2.76v6.66c0,2.29-.98,3.24-2.69,3.24s-2.69-.95-2.69-3.24v-6.66h-2.8v6.77c0,3.55,2.03,5.52,5.47,5.52m11.48,0c3.45,0,5.13-1.73,5.13-3.74,0-4.44-7.02-2.9-7.02-5.13,0-.76.64-1.38,2.3-1.38,1.07,0,2.23.31,3.35.95l.86-2.12c-1.12-.71-2.68-1.07-4.19-1.07-3.43,0-5.09,1.71-5.09,3.77,0,4.49,7.02,2.93,7.02,5.19,0,.74-.67,1.29-2.33,1.29-1.45,0-2.97-.52-3.99-1.26l-.95,2.1c1.06.83,3,1.4,4.91,1.4m9.52-.21h2.8v-9.8h3.86v-2.28h-10.53v2.28h3.87v9.8h0Zm14.76.21c3.8,0,6.61-2.64,6.61-6.25s-2.81-6.25-6.61-6.25-6.61,2.66-6.61,6.25,2.79,6.25,6.61,6.25m0-2.38c-2.16,0-3.78-1.57-3.78-3.87s1.62-3.87,3.78-3.87,3.78,1.57,3.78,3.87-1.62,3.87-3.78,3.87m21.61,2.17l-.04-12.08h-2.3l-4.45,7.51-4.52-7.51h-2.31v12.08h2.62v-7.09l3.53,5.82h1.26l3.55-5.97.02,7.25h2.64Z"/>
      <path class="cls-4" d="m17.99,33.12c3.13,0,5.45-2.18,5.45-5.15s-2.32-5.15-5.45-5.15-5.45,2.19-5.45,5.15c0,2.96,2.3,5.15,5.45,5.15m0-1.97c-1.78,0-3.11-1.29-3.11-3.19s1.34-3.19,3.11-3.19,3.12,1.29,3.12,3.19-1.34,3.19-3.12,3.19m11.61,1.97c2.83,0,4.51-1.62,4.51-4.55v-5.58h-2.28v5.49c0,1.89-.81,2.68-2.22,2.68s-2.22-.78-2.22-2.68v-5.49h-2.31v5.58c0,2.93,1.69,4.55,4.52,4.55m14.01-.17h2.42l-4.45-9.96h-2.28l-4.44,9.96h2.36l.88-2.13h4.62l.89,2.13Zm-4.76-3.89l1.58-3.81,1.58,3.81h-3.16Zm8.93,3.89h4.53c3.26,0,5.49-1.96,5.49-4.98s-2.23-4.98-5.49-4.98h-4.53v9.96Zm2.31-1.9v-6.17h2.11c1.98,0,3.27,1.18,3.27,3.09s-1.29,3.09-3.27,3.09h-2.11Zm18.24,2.07c1.74,0,3.17-.63,4.11-1.78l-1.48-1.37c-.67.78-1.51,1.18-2.51,1.18-1.86,0-3.19-1.31-3.19-3.19s1.32-3.19,3.19-3.19c.99,0,1.84.4,2.51,1.17l1.48-1.37c-.94-1.14-2.38-1.76-4.1-1.76-3.1,0-5.41,2.15-5.41,5.15.01,3.01,2.31,5.16,5.4,5.16m5.66-.17h2.31v-9.96h-2.31v9.96Zm6.73,0h2.31v-8.08h3.19v-1.88h-8.68v1.88h3.19v8.08h-.01Zm16.62-9.96h-2.26l-2.66,4.43-2.66-4.43h-2.45l3.85,6.4v3.56h2.3v-3.53l3.88-6.43Z"/>
      <polygon class="cls-2" points="18.03 29.67 19.37 29.67 19.72 29.67 23.48 33.87 23.13 33.87 21.79 33.87 21.44 33.87 17.68 29.67 18.03 29.67"/>
      <polygon class="cls-1" points="6.61 3.6 66.91 13.02 66.91 20.51 69.99 20.51 69.99 10.38 3.53 0 3.53 67.12 69.99 59.34 69.99 51.8 66.91 51.8 66.91 56.6 6.61 63.66 6.61 3.6"/>
      <polygon class="cls-2" points="66.45 60.76 2.59 68.24 2.59 4.61 0 4.2 0 71.32 66.45 62.81 66.45 60.76"/>
      <path class="cls-1" d="m115.34,44.74h-2.8v-2.14h5.36v5.36c-1.33,1-3.16,1.54-4.88,1.54-3.8,0-6.59-2.61-6.59-6.25s2.8-6.25,6.65-6.25c2.12,0,3.88.73,5.06,2.09l-1.8,1.66c-.88-.93-1.9-1.36-3.12-1.36-2.35,0-3.95,1.57-3.95,3.87s1.61,3.87,3.92,3.87c.76,0,1.47-.14,2.17-.52v-1.87h-.02Zm-19.67,4.76c3.45,0,5.13-1.73,5.13-3.74,0-4.44-7.03-2.9-7.03-5.13,0-.76.64-1.38,2.3-1.38,1.07,0,2.23.31,3.35.95l.86-2.12c-1.12-.71-2.67-1.07-4.19-1.07-3.44,0-5.09,1.71-5.09,3.77,0,4.49,7.02,2.93,7.02,5.19,0,.74-.67,1.29-2.33,1.29-1.45,0-2.97-.52-3.99-1.26l-.95,2.1c1.08.83,3.01,1.4,4.92,1.4m6.56-.21h2.79v-12.08h-2.79v12.08Zm25.85-12.08v7.33l-6.01-7.33h-2.31v12.08h2.76v-7.33l6.02,7.33h2.3v-12.08h-2.76Zm8.88,12.29c3.45,0,5.13-1.73,5.13-3.74,0-4.44-7.02-2.9-7.02-5.13,0-.76.64-1.38,2.29-1.38,1.07,0,2.23.31,3.35.95l.86-2.12c-1.12-.71-2.67-1.07-4.19-1.07-3.43,0-5.09,1.71-5.09,3.77,0,4.49,7.02,2.93,7.02,5.19,0,.74-.67,1.29-2.33,1.29-1.45,0-2.97-.52-3.99-1.26l-.95,2.1c1.07.83,3.01,1.4,4.92,1.4"/>
    </g>
  </g>
</svg>