<?xml version="1.0" encoding="UTF-8"?>
<svg id="Layer_2" data-name="Layer 2" xmlns="http://www.w3.org/2000/svg" viewBox="0 0 73.27 65.76">
  <defs>
    <style>
      .cls-1 {
        fill: none;
        stroke: #999;
        stroke-miterlimit: 10;
        stroke-width: 2px;
      }
    </style>
  </defs>
  <g id="Layer_2-2" data-name="Layer 2">
    <g>
      <path class="cls-1" d="m64.88,10.62h5.13c1.25,0,2.26,1.01,2.26,2.26l-.23,19.22c0,2,0,8,0,24,0,2,.69,7.34-3.47,8.14-4.27.81-35.11.45-41.03.36-.38,0-14,0-18,0s-6.5-1.5-7.5-3.5c-.78-1.56-1-10-1-30,0-6.01-.28-20.09.54-26.71.13-1.03,1.47-3.44,4.14-3.39,6.32.1,43.25.1,53.32.1,2.63,0,4,0,5,2s.84,7.95.84,14.07v36.93s.16,5,2.16,6"/>
      <line class="cls-1" x1="11.05" y1="12.1" x2="55.05" y2="12.1"/>
      <line class="cls-1" x1="36.36" y1="21.1" x2="54.36" y2="21.1"/>
      <line class="cls-1" x1="36.36" y1="28.69" x2="54.36" y2="28.69"/>
      <line class="cls-1" x1="36.36" y1="37.1" x2="54.36" y2="37.1"/>
      <line class="cls-1" x1="36.36" y1="46.1" x2="54.36" y2="46.1"/>
      <line class="cls-1" x1="36.36" y1="54.1" x2="54.36" y2="54.1"/>
      <line class="cls-1" x1="11.55" y1="46.1" x2="29.55" y2="46.1"/>
      <line class="cls-1" x1="11.55" y1="54.1" x2="29.55" y2="54.1"/>
      <rect class="cls-1" x="12.05" y="20.1" width="17" height="18" rx="2.38" ry="2.38"/>
    </g>
  </g>
</svg>