<?xml version="1.0" encoding="UTF-8"?>
<svg id="Layer_2" data-name="Layer 2" xmlns="http://www.w3.org/2000/svg" viewBox="0 0 43.97 44.4">
  <defs>
    <style>
      .cls-1 {
        fill: none;
        stroke: #999;
        stroke-miterlimit: 10;
        stroke-width: 2px;
      }
    </style>
  </defs>
  <g id="Layer_2-2" data-name="Layer 2">
    <g>
      <path class="cls-1" d="m5.41,4.16S1.9,7.67,1.2,9.07s.28,6.51,5.76,14.14,13.55,14.3,13.55,14.3c0,0,2.81,2.81,7.02,4.21s6.32,2.11,7.72,1.4,5.62-5.62,5.62-5.62c0,0,.7-2.11-1.4-4.21l-4.91-4.91s-1.4-.7-2.81,0-3.51,2.81-3.51,2.81c0,0-1.72,1.79-3.51,0-1.4-1.4-5.69-5.51-7.72-7.72-.38-.41-2.11-2.11-2.81-2.81-.81-.81-2.11-2.11-1.4-3.51.89-1.78,2.81-2.81,3.51-4.21.89-1.78-1.4-4.21-2.81-5.62l-2.81-2.81s-2.81-2.11-5.27-.35Z"/>
      <path class="cls-1" d="m23.31,12.23c.37-.05,3.74-.47,6.32,2.11s2.16,5.95,2.11,6.32"/>
      <path class="cls-1" d="m24.02,6.62c1.13.09,5.49.57,9.13,4.21s4.12,7.99,4.21,9.13"/>
      <path class="cls-1" d="m24.02,1c1.32.02,7.95.23,13.34,5.62,5.39,5.39,5.6,12.02,5.62,13.34"/>
    </g>
  </g>
</svg>